<svg xmlns="http://www.w3.org/2000/svg" xmlns:xlink="http://www.w3.org/1999/xlink" width="179" height="280" viewBox="0 0 179 280" fill="none"><defs><linearGradient id="linear_0" x1="50%" y1="22.235%" x2="51%" y2="100%" gradientUnits="objectBoundingBox"><stop offset="0" stop-color="#000A57" stop-opacity="1" /><stop offset="1" stop-color="#433FFA" stop-opacity="1" /></linearGradient><linearGradient id="linear_1" x1="50%" y1="-20.817%" x2="51%" y2="100%" gradientUnits="objectBoundingBox"><stop offset="0" stop-color="#030F89" stop-opacity="1" /><stop offset="0.7808" stop-color="#030F89" stop-opacity="0.02" /><stop offset="1" stop-color="#030F89" stop-opacity="0" /></linearGradient><linearGradient id="linear_2" x1="50%" y1="-15.934999999999999%" x2="51%" y2="55.989%" gradientUnits="objectBoundingBox"><stop offset="0" stop-color="#0516DA" stop-opacity="1" /><stop offset="1" stop-color="#0516DA" stop-opacity="0" /></linearGradient></defs><g opacity="1" transform="translate(0 0)  rotate(0 89.5 140)"><path id="矩形 2" fill-rule="evenodd" fill="url(#linear_0)" transform="translate(82 0)  rotate(0 48.5 140)" opacity="1" d="M0,280L97,280L97,0L0,0L0,280Z " /><path id="矩形 2" fill-rule="evenodd" fill="url(#linear_1)" transform="translate(53 0)  rotate(0 14.5 140)" opacity="1" d="M0,280L29,280L29,0L0,0L0,280Z " /><path id="矩形 2" fill-rule="evenodd" fill="url(#linear_2)" transform="translate(0 0)  rotate(0 26.5 140)" opacity="1" d="M0,280L53,280L53,0L0,0L0,280Z " /></g></svg>