<svg xmlns="http://www.w3.org/2000/svg" xmlns:xlink="http://www.w3.org/1999/xlink" width="40" height="40" viewBox="0 0 40 40" fill="none"><defs><path id="path_0"
        transform="translate(6 3) rotate(0 5.5 9)"
        d="M3.00003,4.5L3.00003,7.2L0.4999500000000001,7.2C0.2239600000000001,7.2 1.1102230246251565e-16,7.42392 1.1102230246251565e-16,7.70004L1.1102230246251565e-16,10.29996C1.1102230246251565e-16,10.576080000000001 0.2239600000000001,10.8 0.4999500000000001,10.8L3.00003,10.8L3.00003,17.49996C3.00003,17.77608 3.22399,18 3.4999800000000003,18L6.5000100000000005,18C6.775010000000001,18 6.999960000000001,17.77608 6.999960000000001,17.49996L6.999960000000001,10.8L9.618950000000002,10.8C9.84401,10.8 10.041020000000001,10.65006 10.101960000000002,10.43406L10.823010000000002,7.833960000000001C10.912000000000003,7.516080000000001 10.671980000000001,7.200000000000001 10.341980000000001,7.200000000000001L6.9999600000000015,7.200000000000001L6.9999600000000015,4.500000000000001C6.9999600000000015,4.003020000000001 7.447000000000002,3.600000000000001 7.999970000000001,3.600000000000001L10.500050000000002,3.600000000000001C10.775050000000002,3.600000000000001 11.000000000000002,3.376080000000001 11.000000000000002,3.099960000000001L11.000000000000002,0.5000400000000012C11.000000000000002,0.22392000000000117 10.775050000000002,1.1102230246251565e-15 10.500050000000002,1.1102230246251565e-15L7.999970000000001,1.1102230246251565e-15C5.237980000000001,1.1102230246251565e-15 3.0000300000000015,2.014920000000001 3.0000300000000015,4.500000000000001z" /></defs><g opacity="1" transform="translate(0 0)  rotate(0 20 20)"><path id="圆形 1" fill-rule="evenodd" style="fill:#F7F7F7" transform="translate(0 0)  rotate(0 20 20)" opacity="1" d="M20,0C14.48,0 9.48,2.24 5.86,5.86C2.24,9.48 0,14.48 0,20C0,31.05 8.95,40 20,40C31.05,40 40,31.05 40,20C40,8.95 31.05,0 20,0Z " /><g opacity="1" transform="translate(8 8)  rotate(0 12 12)"><mask id="mask-0" fill="white"><use xlink:href="#path_0"></use></mask><g mask="url(#mask-0)"><path id="🎨 Icon Сolor" fill-rule="evenodd" style="fill:#26262E" transform="translate(6 3)  rotate(0 5.5 9)" opacity="0.6" d="M3.00003,4.5L3.00003,7.2L0.4999500000000001,7.2C0.2239600000000001,7.2 1.1102230246251565e-16,7.42392 1.1102230246251565e-16,7.70004L1.1102230246251565e-16,10.29996C1.1102230246251565e-16,10.576080000000001 0.2239600000000001,10.8 0.4999500000000001,10.8L3.00003,10.8L3.00003,17.49996C3.00003,17.77608 3.22399,18 3.4999800000000003,18L6.5000100000000005,18C6.775010000000001,18 6.999960000000001,17.77608 6.999960000000001,17.49996L6.999960000000001,10.8L9.618950000000002,10.8C9.84401,10.8 10.041020000000001,10.65006 10.101960000000002,10.43406L10.823010000000002,7.833960000000001C10.912000000000003,7.516080000000001 10.671980000000001,7.200000000000001 10.341980000000001,7.200000000000001L6.9999600000000015,7.200000000000001L6.9999600000000015,4.500000000000001C6.9999600000000015,4.003020000000001 7.447000000000002,3.600000000000001 7.999970000000001,3.600000000000001L10.500050000000002,3.600000000000001C10.775050000000002,3.600000000000001 11.000000000000002,3.376080000000001 11.000000000000002,3.099960000000001L11.000000000000002,0.5000400000000012C11.000000000000002,0.22392000000000117 10.775050000000002,1.1102230246251565e-15 10.500050000000002,1.1102230246251565e-15L7.999970000000001,1.1102230246251565e-15C5.237980000000001,1.1102230246251565e-15 3.0000300000000015,2.014920000000001 3.0000300000000015,4.500000000000001z " /></g></g></g></svg>