<svg xmlns="http://www.w3.org/2000/svg" xmlns:xlink="http://www.w3.org/1999/xlink" width="40" height="40" viewBox="0 0 40 40" fill="none"><defs><path id="path_0"
        transform="translate(3.99950000000001 3.863597453813573) rotate(0 8.000000000000002 7.6362598768361964)"
        d="M8,0C3.58,0 8,0 8,0ZM3.72,5.32C3.64,5.12 3.36,4.33 3.8,3.25C3.8,3.25 4.47,3.04 6,4.05C6.64,3.88 7.32,3.79 8,3.79C8.68,3.79 9.36,3.88 10,4.05C11.53,3.04 12.2,3.25 12.2,3.25C12.64,4.33 12.36,5.12 12.28,5.32C12.79,5.87 13.1,6.57 13.1,7.42C13.1,10.43 11.23,11.09 9.45,11.28C9.74,11.53 9.99,12 9.99,12.73C9.99,13.78 9.98,14.62 9.98,14.88C9.98,15.09 10.13,15.33 10.53,15.26C13.71,14.22 16,11.29 16,7.83C16,3.51 12.42,0 8,0C3.58,0 0,3.51 0,7.83C0,11.29 2.29,14.22 5.47,15.26C5.87,15.33 6.02,15.09 6.02,14.88C6.02,14.7 6.01,14.2 6.01,13.55C3.78,14.02 3.31,12.5 3.31,12.5C2.95,11.6 2.42,11.35 2.42,11.35C1.7,10.87 2.48,10.88 2.48,10.88C3.28,10.93 3.7,11.69 3.7,11.69C4.42,12.88 5.58,12.54 6.03,12.34C6.11,11.83 6.31,11.49 6.54,11.29C4.76,11.09 2.9,10.42 2.9,7.42C2.9,6.57 3.21,5.87 3.72,5.32Z" /></defs><g opacity="1" transform="translate(0 0)  rotate(0 20 20)"><path id="圆形 1" fill-rule="evenodd" style="fill:#F7F7F7" transform="translate(0 0)  rotate(0 20 20)" opacity="1" d="M20,0C8.95,0 0,8.95 0,20C0,31.05 8.95,40 20,40C31.05,40 40,31.05 40,20C40,8.95 31.05,0 20,0Z " /><g opacity="1" transform="translate(8 8)  rotate(0 12 12)"><mask id="mask-0" fill="white"><use xlink:href="#path_0"></use></mask><g mask="url(#mask-0)"><path id="🎨 Icon Сolor" fill-rule="evenodd" style="fill:#26262E" transform="translate(3.99950000000001 3.863597453813573)  rotate(0 8.000000000000002 7.6362598768361964)" opacity="0.6" d="M3.8 3.25C3.36 4.33 3.64 5.12 3.72 5.32C3.21 5.87 2.9 6.57 2.9 7.42C2.9 10.42 4.76 11.09 6.54 11.29C6.31 11.49 6.11 11.83 6.03 12.34C5.58 12.54 4.42 12.88 3.7 11.69C3.7 11.69 3.28 10.93 2.48 10.88C2.48 10.88 1.7 10.87 2.42 11.35C2.42 11.35 2.95 11.6 3.31 12.5C3.31 12.5 3.78 14.02 6.01 13.55C6.01 14.2 6.02 14.7 6.02 14.88C6.02 15.09 5.87 15.33 5.47 15.26C2.29 14.22 0 11.29 0 7.83C0 3.51 3.58 0 8 0C12.42 0 16 3.51 16 7.83C16 11.29 13.71 14.22 10.53 15.26C10.13 15.33 9.98 15.09 9.98 14.88C9.98 14.62 9.99 13.78 9.99 12.73C9.99 12 9.74 11.53 9.45 11.28C11.23 11.09 13.1 10.43 13.1 7.42C13.1 6.57 12.79 5.87 12.28 5.32C12.36 5.12 12.64 4.33 12.2 3.25C12.2 3.25 11.53 3.04 10 4.05C9.36 3.88 8.68 3.79 8 3.79C7.32 3.79 6.64 3.88 6 4.05C4.47 3.04 3.8 3.25 3.8 3.25Z" /></g></g></g></svg>