<svg xmlns="http://www.w3.org/2000/svg" xmlns:xlink="http://www.w3.org/1999/xlink" width="40" height="40" viewBox="0 0 40 40" fill="none"><defs><path id="path_0"
        transform="translate(4.000088248357846 4.000630072788342) rotate(0 8.000000000000002 7.999948559317241)"
        d="M12.4,9.58C11.86,11.3 12.4,9.58 12.4,9.58ZM8.4,6.4C8.18,6.4 8,6.58 8,6.8L8,9.18C8,9.4 8.18,9.58 8.4,9.58L12.4,9.58C11.86,11.3 10.54,12.48 8.77,12.75C6.07,13.14 3.42,11.1 3.21,8.38C3,5.56 5.22,3.2 8,3.2C8.64,3.2 9.26,3.33 9.82,3.56C10.01,3.63 10.23,3.57 10.33,3.38L11.48,1.26C11.59,1.06 11.51,0.8 11.3,0.71C10.29,0.25 9.18,0 8,0C3.51,0 -0.13,3.71 0,8.23C0.12,12.36 3.53,15.82 7.65,15.99C12.09,16.18 15.77,12.76 15.99,8.42C16,8.26 16,7.34 16,6.8C16,6.58 15.82,6.4 15.6,6.4L8.4,6.4Z" /></defs><g opacity="1" transform="translate(0 0)  rotate(0 20 20)"><path id="圆形 1" fill-rule="evenodd" style="fill:#F7F7F7" transform="translate(0 0)  rotate(0 20 20)" opacity="1" d="M20,0C8.95,0 0,8.95 0,20C0,31.05 8.95,40 20,40C31.05,40 40,31.05 40,20C40,8.95 31.05,0 20,0Z " /><g opacity="1" transform="translate(8 8)  rotate(0 12 12)"><mask id="mask-0" fill="white"><use xlink:href="#path_0"></use></mask><g mask="url(#mask-0)"><path id="🎨 Icon Сolor" fill-rule="evenodd" style="fill:#26262E" transform="translate(4.000088248357846 4.000630072788342)  rotate(0 8.000000000000002 7.999948559317241)" opacity="0.6" d="M8 6.8C8 6.58 8.18 6.4 8.4 6.4L15.6 6.4C15.82 6.4 16 6.58 16 6.8C16 7.34 16 8.26 15.99 8.42C15.77 12.76 12.09 16.18 7.65 15.99C3.53 15.82 0.12 12.36 0 8.23C-0.13 3.71 3.51 0 8 0C9.18 0 10.29 0.25 11.3 0.71C11.51 0.8 11.59 1.06 11.48 1.26L10.33 3.38C10.23 3.57 10.01 3.63 9.82 3.56C9.26 3.33 8.64 3.2 8 3.2C5.22 3.2 3 5.56 3.21 8.38C3.42 11.1 6.07 13.14 8.77 12.75C10.54 12.48 11.86 11.3 12.4 9.58L8.4 9.58C8.18 9.58 8 9.4 8 9.18L8 6.8Z" /></g></g></g></svg>