<svg xmlns="http://www.w3.org/2000/svg" xmlns:xlink="http://www.w3.org/1999/xlink" width="19" height="20" viewBox="0 0 19 20" fill="none"><path id="Home" fill-rule="evenodd" style="fill:#200E32" transform="translate(0 0)  rotate(0 9.5 10)" opacity="1" d="M8.08,14.29L10.97,14.29C11.76,14.29 12.4,14.92 12.4,15.7L12.4,18.78C12.4,19.44 12.94,19.98 13.6,20L15.53,20C17.45,20 19,18.46 19,16.56L19,7.84C18.99,7.09 18.64,6.39 18.04,5.93L11.46,0.69C10.31,-0.23 8.67,-0.23 7.51,0.69L0.96,5.94C0.36,6.4 0.01,7.1 0,7.85L0,16.56C0,18.46 1.55,20 3.47,20L5.4,20C6.08,20 6.64,19.45 6.66,18.77L6.66,15.7C6.66,14.92 7.29,14.29 8.08,14.29z " /></svg>