<svg xmlns="http://www.w3.org/2000/svg" xmlns:xlink="http://www.w3.org/1999/xlink" width="20" height="20" viewBox="0 0 20 20" fill="none"><g opacity="1" transform="translate(0 0)  rotate(0 10 10)"><path id="Chart" fill-rule="evenodd" style="fill:#200E32" transform="translate(0 0)  rotate(0 10 10)" opacity="0.4" d="M14.31,11c0.35,0 0.65,0.26 0.69,0.6l0.01,0.1v3c0,0.39 -0.31,0.7 -0.7,0.7c-0.35,0 -0.65,-0.26 -0.69,-0.6l-0.01,-0.1v-3c0,-0.39 0.31,-0.7 0.7,-0.7z M5.7,7.63c0.35,0 0.65,0.26 0.69,0.6l0.01,0.1v6.38c0,0.39 -0.31,0.7 -0.7,0.7c-0.35,0 -0.65,-0.26 -0.69,-0.6l-0.01,-0.1v-6.38c0,-0.39 0.31,-0.7 0.7,-0.7z M10.04,4.58c0.35,0 0.65,0.26 0.69,0.6l0.01,9.53c0,0.39 -0.31,0.7 -0.7,0.7c-0.35,0 -0.65,-0.26 -0.69,-0.6l-0.01,-9.53c0,-0.39 0.31,-0.7 0.7,-0.7z M14.36,0c3.39,0 5.64,2.42 5.64,5.89v8.22c0,3.47 -2.25,5.89 -5.64,5.89h-8.72c-3.39,0 -5.64,-2.42 -5.64,-5.89v-8.22c0,-3.47 2.26,-5.89 5.64,-5.89z M1.4,5.9v8.21c0,2.73 1.65,4.5 4.25,4.5h8.71c2.6,0 4.25,-1.77 4.25,-4.5v-8.21c0,-2.73 -1.65,-4.5 -4.25,-4.5h-8.71c-2.6,0 -4.25,1.77 -4.25,4.5z " /><path  id="三角形 1" style="stroke:#200E32; stroke-width:1; stroke-opacity:0.4; stroke-dasharray:0 0" transform="translate(6.6200000000000045 7)  rotate(90 4 3)" d="M1.0364667974834862,4.445299803774771C0.8318959467782401,4.752156079832639 0.8128234862187378,5.146700436959711 0.986842493053386,5.471857925532024C1.1608614998880342,5.7970154141043375 1.499721745979803,6 1.8685170918213296,6L6.131482908178669,6C6.500278254020197,6 6.839138500111966,5.7970154141043375 7.013157506946614,5.471857925532024C7.187176513781262,5.14670043695971 7.16810405322176,4.752156079832639 6.963533202516513,4.44529980377477L4.832050294337843,1.248075441506766C4.646584515395036,0.9698767730925549 4.33435318791108,0.802775637731995 3.999999999999999,0.8027756377319948C3.6656468120889185,0.8027756377319946 3.353415484604963,0.9698767730925544 3.1679497056621555,1.2480754415067654Z " /></g></svg>