<svg xmlns="http://www.w3.org/2000/svg" xmlns:xlink="http://www.w3.org/1999/xlink" width="16" height="20" viewBox="0 0 16 20" fill="none"><g opacity="1" transform="translate(0 0)  rotate(0 8 10)"><path  id="Ellipse_736" style="stroke:#200E32; stroke-width:1.5; stroke-opacity:0.4; stroke-dasharray:0 0" transform="translate(2.8 0)  rotate(0 4.78 4.78)" d="M9.56,4.78C9.56,2.14 7.42,0 4.78,0C2.14,0 0,2.14 0,4.78C0,7.42 2.14,9.56 4.78,9.56C7.42,9.56 9.56,7.42 9.56,4.78z " /><path  id="Path_33945" style="stroke:#200E32; stroke-width:1.5; stroke-opacity:0.4; stroke-dasharray:0 0" transform="translate(0 13.19)  rotate(0 7.575 3.02)" d="M12.11,0.43C11.34,0.26 10.56,0.15 9.77,0.1C8.31,-0.03 6.84,-0.03 5.38,0.1C4.6,0.15 3.81,0.26 3.04,0.43C1.97,0.65 0.68,1.13 0.22,2.05C0.07,2.35 0,2.68 0,3.02C0,3.36 0.07,3.69 0.22,4C0.69,4.96 1.97,5.4 3.05,5.61C3.82,5.78 4.6,5.89 5.38,5.95C5.66,6 5.92,6 6.2,6C7.39,6.07 8.58,6.05 9.77,5.95C10.56,5.89 11.34,5.78 12.11,5.61C13.18,5.4 14.47,4.96 14.93,4C15.22,3.38 15.22,2.66 14.93,2.05C14.47,1.09 13.18,0.65 12.11,0.43z " /></g></svg>